# xmcd CD database file
#
# Track frame offsets:
#	150
#	33179
#	59054
#	92272
#	126724
#	149579
#	194723
#	224614
#	245437
#	261096
#	286965
#	312190
#	330799
#
# Disc length: 4791 seconds
#
# Revision: 0
# Processed by: cddbd v1.5.2PL0 Copyright (c) Steve Scherf et al.
# Submitted via: CDex 1.70beta2
#
DISCID=cc12b50d
DTITLE=Gerry Mulligan - Four Classic Albums Disc 2
DYEAR=2011
DGENRE=Jazz
TTITLE0=Chelsea Bridge
TTITLE1=The Cat Walk
TTITLE2=Sunday
TTITLE3=Who's Got Rhythm
TTITLE4=Tell Me When
TTITLE5=Go Home
TTITLE6=Bweebirds Bobida
TTITLE7=Birth Of The Blues
TTITLE8=Baubles Bangles And Beads
TTITLE9=Open Country
TTITLE10=Storyville Story
TTITLE11=That Old Feeling
TTITLE12=Bike Up The Strand - Utter Chaos
EXTD=YEAR: 2011
EXTT0=
EXTT1=
EXTT2=
EXTT3=
EXTT4=
EXTT5=
EXTT6=
EXTT7=
EXTT8=
EXTT9=
EXTT10=
EXTT11=
EXTT12=
PLAYORDER=
